<svg width="44" height="38" viewBox="0 0 44 38" xmlns="http://www.w3.org/2000/svg">
<path d="M21.995 8C27.5137 8 31.9927 12.48 31.9927 18C31.9927 19.29 31.7328 20.52 31.2829 21.65L37.1316 27.5C40.1509 24.98 42.5303 21.72 44 18C40.5308 9.22 32.0027 3 21.995 3C19.1956 3 16.5162 3.5 14.0268 4.4L18.3458 8.71C19.4756 8.27 20.7053 8 21.995 8V8ZM1.99955 2.55L6.55851 7.11L7.4683 8.02C4.16905 10.6 1.55965 14.03 0 18C3.45921 26.78 11.9973 33 21.995 33C25.0943 33 28.0536 32.4 30.763 31.31L31.6128 32.16L37.4415 38L39.9909 35.46L4.54897 0L1.99955 2.55ZM13.057 13.6L16.1463 16.69C16.0564 17.12 15.9964 17.55 15.9964 18C15.9964 21.31 18.6858 24 21.995 24C22.4449 24 22.8748 23.94 23.2947 23.85L26.384 26.94C25.0543 27.6 23.5746 28 21.995 28C16.4763 28 11.9973 23.52 11.9973 18C11.9973 16.42 12.3972 14.94 13.057 13.6ZM21.6651 12.03L27.9636 18.33L27.9936 18C27.9936 14.69 25.3043 12 21.995 12L21.6651 12.03Z" fill="#d2ddf1"/>
</svg>
