<svg width="24" height="24" viewBox="0 0 24 24" fill="none" xmlns="http://www.w3.org/2000/svg">
<g clip-path="url(#clip0_828_2222)">
<path d="M12 24C18.6274 24 24 18.6274 24 12C24 5.37258 18.6274 0 12 0C5.37258 0 0 5.37258 0 12C0 18.6274 5.37258 24 12 24Z" fill="#3B5998"/>
<path d="M15.0163 12.4698H12.875V20.3143H9.63083V12.4698H8.08789V9.71287H9.63083V7.92885C9.63083 6.65308 10.2368 4.65536 12.9039 4.65536L15.307 4.66542V7.34145H13.5634C13.2774 7.34145 12.8752 7.48434 12.8752 8.09292V9.71544H15.2997L15.0163 12.4698Z" fill="white"/>
</g>
<defs>
<clipPath id="clip0_828_2222">
<rect width="24" height="24" fill="white"/>
</clipPath>
</defs>
</svg>
