<svg width="16" height="16" viewBox="0 0 16 16" fill="none" xmlns="http://www.w3.org/2000/svg">
<path fill-rule="evenodd" clip-rule="evenodd" d="M8 0C3.58172 0 0 3.58172 0 8C0 12.4183 3.58172 16 8 16C12.4183 16 16 12.4183 16 8C16 3.58172 12.4183 0 8 0ZM6.24109 3.75909C6.6962 3.73838 6.84163 3.73331 8.0004 3.73331H7.99906C9.15819 3.73331 9.30308 3.73838 9.75819 3.75909C10.2124 3.77989 10.5226 3.8518 10.7946 3.95731C11.0755 4.06621 11.3129 4.21198 11.5502 4.44932C11.7875 4.68648 11.9333 4.92453 12.0427 5.20515C12.1475 5.47644 12.2196 5.78649 12.2409 6.24072C12.2613 6.69583 12.2667 6.84126 12.2667 8.00002C12.2667 9.15879 12.2613 9.30386 12.2409 9.75898C12.2196 10.213 12.1475 10.5232 12.0427 10.7945C11.9333 11.0751 11.7875 11.3131 11.5502 11.5503C11.3131 11.7876 11.0754 11.9338 10.7949 12.0427C10.5234 12.1482 10.213 12.2202 9.75881 12.241C9.3037 12.2617 9.15872 12.2667 7.99986 12.2667C6.84118 12.2667 6.69585 12.2617 6.24073 12.241C5.78659 12.2202 5.47646 12.1482 5.20499 12.0427C4.92454 11.9338 4.68649 11.7876 4.44943 11.5503C4.21218 11.3131 4.0664 11.0751 3.95733 10.7945C3.85191 10.5232 3.78 10.2131 3.75911 9.75889C3.73848 9.30377 3.73333 9.15879 3.73333 8.00002C3.73333 6.84126 3.73866 6.69574 3.75902 6.24063C3.77946 5.78658 3.85146 5.47644 3.95724 5.20506C4.06658 4.92453 4.21236 4.68648 4.44969 4.44932C4.68685 4.21207 4.9249 4.06629 5.20552 3.95731C5.47681 3.8518 5.78686 3.77989 6.24109 3.75909Z" fill="white" fill-opacity="0.5"/>
<path fill-rule="evenodd" clip-rule="evenodd" d="M7.61762 4.50223C7.69194 4.50211 7.77189 4.50215 7.85817 4.50218L8.00038 4.50223C9.13959 4.50223 9.27461 4.50632 9.72448 4.52676C10.1405 4.54578 10.3663 4.61529 10.5167 4.67369C10.7158 4.75103 10.8577 4.84347 11.007 4.99281C11.1563 5.14214 11.2488 5.28437 11.3263 5.48348C11.3847 5.6337 11.4543 5.85949 11.4732 6.27549C11.4937 6.72527 11.4981 6.86038 11.4981 7.99906C11.4981 9.13774 11.4937 9.27285 11.4732 9.72264C11.4542 10.1386 11.3847 10.3644 11.3263 10.5146C11.2489 10.7138 11.1563 10.8555 11.007 11.0048C10.8577 11.1541 10.7159 11.2466 10.5167 11.3239C10.3664 11.3826 10.1405 11.4519 9.72448 11.4709C9.2747 11.4914 9.13959 11.4958 8.00038 11.4958C6.86108 11.4958 6.72605 11.4914 6.27627 11.4709C5.86027 11.4517 5.63449 11.3822 5.484 11.3238C5.28488 11.2465 5.14266 11.154 4.99332 11.0047C4.84399 10.8554 4.75154 10.7135 4.67403 10.5143C4.61563 10.3641 4.54603 10.1383 4.5271 9.72228C4.50665 9.2725 4.50256 9.13739 4.50256 7.998C4.50256 6.85861 4.50665 6.72421 4.5271 6.27442C4.54612 5.85842 4.61563 5.63264 4.67403 5.48224C4.75137 5.28312 4.84399 5.1409 4.99332 4.99156C5.14266 4.84223 5.28488 4.74978 5.484 4.67227C5.6344 4.61361 5.86027 4.54427 6.27627 4.52516C6.66987 4.50738 6.82241 4.50205 7.61762 4.50116V4.50223ZM10.2779 5.21069C9.99524 5.21069 9.76591 5.43976 9.76591 5.72252C9.76591 6.00519 9.99524 6.23452 10.2779 6.23452C10.5606 6.23452 10.7899 6.00519 10.7899 5.72252C10.7899 5.43985 10.5606 5.21051 10.2779 5.21051V5.21069ZM5.80924 8.00006C5.80924 6.79003 6.79027 5.80897 8.00029 5.80892C9.21034 5.80892 10.1912 6.79 10.1912 8.00006C10.1912 9.21012 9.21043 10.1907 8.00038 10.1907C6.79032 10.1907 5.80924 9.21012 5.80924 8.00006Z" fill="white" fill-opacity="0.5"/>
<path d="M8.00036 6.57782C8.78579 6.57782 9.4226 7.21454 9.4226 8.00006C9.4226 8.78549 8.78579 9.42229 8.00036 9.42229C7.21484 9.42229 6.57812 8.78549 6.57812 8.00006C6.57812 7.21454 7.21484 6.57782 8.00036 6.57782Z" fill="white" fill-opacity="0.5"/>
</svg>
