<svg width="13" height="13" viewBox="0 0 13 13" fill="none" xmlns="http://www.w3.org/2000/svg">
<path d="M0.083313 12.25H2.41665V5.25H0.083313V12.25ZM12.9166 5.83333C12.9166 5.18875 12.3946 4.66666 11.75 4.66666H8.06623L8.62331 2.00083C8.63498 1.94249 8.64373 1.88125 8.64373 1.81708C8.64373 1.57499 8.54456 1.35625 8.38706 1.19875L7.76581 0.583328L3.92456 4.42458C3.71456 4.6375 3.58331 4.92916 3.58331 5.25V11.0833C3.58331 11.7279 4.1054 12.25 4.74998 12.25H9.99998C10.4841 12.25 10.8983 11.9554 11.0733 11.5383L12.8321 7.42583C12.8846 7.29166 12.9166 7.14875 12.9166 7V5.88291L12.9108 5.87708L12.9166 5.83333Z" fill="#CDDAF2"/>
</svg>
