<svg width="12" height="15" viewBox="0 0 12 15" fill="none" xmlns="http://www.w3.org/2000/svg">
<path d="M9.99984 4.83335H9.33317V3.50002C9.33317 1.66002 7.83984 0.166687 5.99984 0.166687C4.15984 0.166687 2.6665 1.66002 2.6665 3.50002V4.83335H1.99984C1.26317 4.83335 0.666504 5.43002 0.666504 6.16669V12.8334C0.666504 13.57 1.26317 14.1667 1.99984 14.1667H9.99984C10.7365 14.1667 11.3332 13.57 11.3332 12.8334V6.16669C11.3332 5.43002 10.7365 4.83335 9.99984 4.83335ZM5.99984 10.8334C5.26317 10.8334 4.6665 10.2367 4.6665 9.50002C4.6665 8.76335 5.26317 8.16669 5.99984 8.16669C6.7365 8.16669 7.33317 8.76335 7.33317 9.50002C7.33317 10.2367 6.7365 10.8334 5.99984 10.8334ZM8.0665 4.83335H3.93317V3.50002C3.93317 2.36002 4.85984 1.43335 5.99984 1.43335C7.13984 1.43335 8.0665 2.36002 8.0665 3.50002V4.83335Z" fill="#1565C0"/>
</svg>
