<svg width="205" height="45" viewBox="0 0 205 45" fill="none" xmlns="http://www.w3.org/2000/svg">
<path d="M18.9713 0C8.54493 0 0 8.56021 0 19.0052C0 23.7958 1.72467 28.1152 4.62524 31.4921C5.33078 31.2565 6.11472 31.0995 6.89866 31.0995C10.5048 31.0995 13.4054 33.8482 13.7973 37.3037C15.4436 37.7749 17.1683 38.0105 18.9713 38.0105C29.4761 38.0105 37.9426 29.4503 37.9426 19.0052C38.021 8.56021 29.4761 0 18.9713 0ZM18.9713 29.1361C13.4054 29.1361 8.9369 24.6597 8.9369 19.0838C8.9369 13.5079 13.4054 9.03141 18.9713 9.03141C24.5373 9.03141 29.0057 13.5079 29.0057 19.0838C29.0057 24.5812 24.5373 29.1361 18.9713 29.1361Z" fill="#1565C0"/>
<path d="M4.62524 31.4922C1.95985 32.4346 0 35.0262 0 38.089C0 41.9372 3.13576 45 6.89866 45C10.74 45 13.7973 41.8586 13.7973 38.089C13.7973 37.8534 13.7973 37.6178 13.7973 37.3822C10.1912 36.3613 7.05545 34.2408 4.62524 31.4922Z" fill="#1565C0"/>
<path d="M60.2849 29.3717V37.4607H53.6998V8.40314H66.1645C72.7495 8.40314 76.5125 13.0366 76.5125 18.6911C76.5125 24.6597 72.436 29.3717 65.6157 29.3717H60.2849ZM60.2849 14.4503V23.4031H65.4589C68.2811 23.4031 69.9274 21.5969 69.9274 18.9267C69.9274 16.2565 68.2811 14.5288 65.2237 14.5288H60.2849V14.4503Z" fill="#272557"/>
<path d="M79.8834 37.5392V15.7068H85.7629V18.6911C87.2524 16.7277 89.369 15.3926 92.1128 15.3926V21.3612C87.7228 21.3612 85.8413 23.7958 85.8413 27.5654V37.5392H79.8834Z" fill="#272557"/>
<path d="M116.807 26.7016C116.807 32.9843 111.79 38.0105 105.126 38.0105C98.4628 38.0105 93.4456 33.0628 93.4456 26.7016C93.4456 20.3403 98.4628 15.3141 105.126 15.3141C111.79 15.3141 116.807 20.3403 116.807 26.7016ZM99.2467 26.7016C99.2467 30.1571 101.677 32.7487 104.969 32.7487C108.262 32.7487 110.927 30.1571 110.927 26.7016C110.927 23.1676 108.419 20.6545 105.048 20.6545C101.677 20.6545 99.2467 23.1676 99.2467 26.7016Z" fill="#272557"/>
<path d="M125.509 17.9058C126.606 16.6492 128.801 15.3141 131.858 15.3141C136.954 15.3141 140.247 18.8482 140.247 24.11V37.4607H134.367V25.1309C134.367 22.5393 132.956 20.733 130.369 20.733C127.468 20.733 125.587 22.5393 125.587 25.6021V37.4607H119.707V15.7068H125.509V17.9058Z" fill="#272557"/>
<path d="M156.161 36.7539C154.122 42.5654 151.535 45 146.126 45H144.01V39.6597H145.813C147.773 39.6597 149.027 38.5602 149.811 36.8325L141.736 15.6283H148.478L152.947 29.0576L157.337 15.6283H163.451L156.161 36.7539Z" fill="#272557"/>
<path d="M163.138 37.5393V31.4136H169.252V37.5393H163.138Z" fill="#272557"/>
<path d="M172.702 13.822V8.40314H178.581V13.822H172.702ZM172.702 37.5393V15.7068H178.581V37.4607H172.702V37.5393Z" fill="#272557"/>
<path d="M205 26.7016C205 32.9843 199.983 38.0105 193.319 38.0105C186.656 38.0105 181.639 33.0628 181.639 26.7016C181.639 20.3403 186.656 15.3141 193.319 15.3141C199.983 15.3141 205 20.3403 205 26.7016ZM187.44 26.7016C187.44 30.1571 189.87 32.7487 193.163 32.7487C196.455 32.7487 199.121 30.1571 199.121 26.7016C199.121 23.1676 196.612 20.6545 193.241 20.6545C189.87 20.6545 187.44 23.1676 187.44 26.7016Z" fill="#272557"/>
</svg>
