<svg width="24" height="24" viewBox="0 0 24 24" fill="none" xmlns="http://www.w3.org/2000/svg">
<g clip-path="url(#clip0_828_2226)">
<path d="M11.9999 23.9998C18.6273 23.9998 23.9998 18.6273 23.9998 11.9999C23.9998 5.37254 18.6273 0 11.9999 0C5.37254 0 0 5.37254 0 11.9999C0 18.6273 5.37254 23.9998 11.9999 23.9998Z" fill="#55ACEE"/>
<path d="M19.3498 8.62396C18.8356 8.85199 18.2824 9.00622 17.7023 9.0751C18.2946 8.72022 18.7492 8.15871 18.9637 7.48853C18.4095 7.81731 17.7954 8.05582 17.1423 8.18438C16.6191 7.62715 15.8736 7.2789 15.0481 7.2789C13.4643 7.2789 12.1798 8.56343 12.1798 10.1472C12.1798 10.372 12.2053 10.5909 12.2545 10.8009C9.87065 10.6813 7.75701 9.53949 6.34221 7.80362C6.09536 8.22716 5.95376 8.72022 5.95376 9.2458C5.95376 10.2407 6.46051 11.119 7.22972 11.6332C6.75977 11.6185 6.31719 11.4895 5.93065 11.2741C5.93044 11.2863 5.93044 11.2985 5.93044 11.3105C5.93044 12.7002 6.91956 13.8594 8.23146 14.1227C7.99103 14.1886 7.73712 14.2235 7.47593 14.2235C7.29069 14.2235 7.11122 14.2057 6.93624 14.1723C7.30117 15.3116 8.36024 16.141 9.61567 16.1643C8.63383 16.9337 7.39722 17.3921 6.05301 17.3921C5.82199 17.3921 5.5931 17.3786 5.36914 17.3519C6.63784 18.166 8.1459 18.6407 9.76562 18.6407C15.0415 18.6407 17.9267 14.2701 17.9267 10.4794C17.9267 10.3551 17.9239 10.2313 17.9184 10.1085C18.4792 9.70421 18.9654 9.19917 19.3498 8.62396Z" fill="#F1F2F2"/>
</g>
<defs>
<clipPath id="clip0_828_2226">
<rect width="24" height="24" fill="white"/>
</clipPath>
</defs>
</svg>
