<svg width="30" height="21" viewBox="0 0 30 21" fill="none" xmlns="http://www.w3.org/2000/svg">
<path d="M29.4815 20.5H0.517243C0.231611 20.5 0 20.2643 0 19.9736V1.02652C0 0.735864 0.231611 0.500183 0.517243 0.500183H29.4815C29.7671 0.500183 29.9988 0.735864 29.9988 1.02652V19.9736C29.9987 20.2643 29.7671 20.5 29.4815 20.5Z" fill="#F5F5F5"/>
<path d="M29.9987 2.03864H0V1.02646C0 0.735803 0.231611 0.500122 0.517243 0.500122H29.4815C29.7671 0.500122 29.9988 0.735803 29.9988 1.02646L29.9987 2.03864Z" fill="#FF4B55"/>
<path d="M29.9987 6.65381H0V8.19227H29.9987V6.65381Z" fill="#FF4B55"/>
<path d="M29.9987 3.57684H0V5.1153H29.9987V3.57684Z" fill="#FF4B55"/>
<path d="M29.9987 11.2693H0.517243C0.231611 11.2693 0 11.0336 0 10.743V9.73077H29.9987V11.2693Z" fill="#FF4B55"/>
<path d="M29.9987 15.8851H0V17.4235H29.9987V15.8851Z" fill="#FF4B55"/>
<path d="M29.4815 20.4998H0.517243C0.231611 20.4998 0 20.2641 0 19.9735V18.9614H29.9987V19.9736C29.9987 20.2642 29.7671 20.4998 29.4815 20.4998Z" fill="#FF4B55"/>
<path d="M29.9987 12.8079H0V14.3464H29.9987V12.8079Z" fill="#FF4B55"/>
<path d="M13.4477 0.500061H0.517243C0.231611 0.500061 0 0.735683 0 1.02633V10.7428C0 11.0334 0.231611 11.2691 0.517243 11.2691H13.4477C13.7334 11.2691 13.965 11.0334 13.965 10.7428V1.02633C13.9649 0.735683 13.7333 0.500061 13.4477 0.500061Z" fill="#41479B"/>
<path d="M1.4545 1.70819L1.56898 2.05757L1.9309 2.06037C1.97777 2.06078 1.99717 2.1216 1.95949 2.14992L1.66835 2.36873L1.77757 2.71983C1.79175 2.76526 1.74083 2.80294 1.70269 2.77516L1.40827 2.56106L1.11385 2.77522C1.0757 2.80294 1.02491 2.76532 1.03897 2.71989L1.14818 2.36879L0.857042 2.14998C0.819368 2.1216 0.838761 2.06084 0.885634 2.06043L1.24755 2.05762L1.36204 1.70825C1.3768 1.66293 1.43961 1.66293 1.4545 1.70819Z" fill="#F5F5F5"/>
<path d="M1.45425 3.53578L1.56874 3.88516L1.93066 3.88796C1.97753 3.88838 1.99692 3.94919 1.95925 3.97751L1.66811 4.19632L1.77732 4.54743C1.7915 4.59286 1.74059 4.63054 1.70244 4.60275L1.40802 4.38865L1.1136 4.60281C1.07546 4.63054 1.02466 4.59292 1.03872 4.54748L1.14794 4.19638L0.856797 3.97757C0.819123 3.94919 0.838517 3.88844 0.88539 3.88802L1.24731 3.88522L1.36179 3.53584C1.37656 3.49059 1.43937 3.49059 1.45425 3.53578Z" fill="#F5F5F5"/>
<path d="M1.45425 5.36329L1.56874 5.71267L1.93066 5.71548C1.97753 5.71589 1.99692 5.77671 1.95925 5.80503L1.66811 6.02384L1.77732 6.37495C1.7915 6.42038 1.74059 6.45806 1.70244 6.43028L1.40802 6.21618L1.1136 6.43034C1.07546 6.45806 1.02466 6.42044 1.03872 6.37501L1.14794 6.0239L0.856797 5.80509C0.819123 5.77671 0.838517 5.71595 0.88539 5.71554L1.24731 5.71273L1.36179 5.36335C1.37656 5.3181 1.43937 5.3181 1.45425 5.36329Z" fill="#F5F5F5"/>
<path d="M1.45425 7.19104L1.56874 7.54041L1.93066 7.54322C1.97753 7.54363 1.99692 7.60445 1.95925 7.63277L1.66811 7.85158L1.77732 8.20268C1.7915 8.24812 1.74059 8.2858 1.70244 8.25801L1.40802 8.04391L1.1136 8.25807C1.07546 8.2858 1.02466 8.24818 1.03872 8.20274L1.14794 7.85164L0.856797 7.63283C0.819123 7.60445 0.838517 7.54369 0.88539 7.54328L1.24731 7.54047L1.36179 7.1911C1.37656 7.14578 1.43937 7.14578 1.45425 7.19104Z" fill="#F5F5F5"/>
<path d="M1.45425 9.0186L1.56874 9.36798L1.93066 9.37078C1.97753 9.3712 1.99692 9.43201 1.95925 9.46033L1.66811 9.67914L1.77732 10.0303C1.7915 10.0757 1.74059 10.1134 1.70244 10.0856L1.40802 9.87148L1.1136 10.0856C1.07546 10.1134 1.02466 10.0757 1.03872 10.0303L1.14794 9.6792L0.856797 9.46039C0.819123 9.43201 0.838517 9.37126 0.88539 9.37084L1.24731 9.36804L1.36179 9.01866C1.37656 8.97328 1.43937 8.97328 1.45425 9.0186Z" fill="#F5F5F5"/>
<path d="M2.85244 2.60415L2.96693 2.95352L3.32885 2.95633C3.37572 2.95674 3.39512 3.01756 3.35744 3.04588L3.0663 3.26469L3.17552 3.61579C3.1897 3.66122 3.13878 3.6989 3.10064 3.67112L2.80622 3.45696L2.5118 3.67112C2.47365 3.69884 2.42285 3.66122 2.43692 3.61579L2.54613 3.26469L2.25499 3.04588C2.21732 3.0175 2.23671 2.95674 2.28358 2.95633L2.6455 2.95352L2.75999 2.60415C2.77469 2.55895 2.83762 2.55895 2.85244 2.60415Z" fill="#F5F5F5"/>
<path d="M2.85244 4.43183L2.96693 4.7812L3.32885 4.784C3.37572 4.78442 3.39512 4.84523 3.35744 4.87355L3.0663 5.09236L3.17552 5.44347C3.1897 5.4889 3.13878 5.52658 3.10064 5.49879L2.80622 5.28464L2.5118 5.49879C2.47365 5.52652 2.42285 5.48896 2.43692 5.44347L2.54613 5.09236L2.25499 4.87355C2.21732 4.84518 2.23671 4.78442 2.28358 4.784L2.6455 4.7812L2.75999 4.43183C2.77469 4.38658 2.83762 4.38658 2.85244 4.43183Z" fill="#F5F5F5"/>
<path d="M2.85244 6.25959L2.96693 6.60896L3.32885 6.61177C3.37572 6.61218 3.39512 6.673 3.35744 6.70132L3.0663 6.92013L3.17552 7.27123C3.1897 7.31666 3.13878 7.35434 3.10064 7.32656L2.80622 7.1124L2.5118 7.32656C2.47365 7.35429 2.42285 7.31666 2.43692 7.27123L2.54613 6.92013L2.25499 6.70132C2.21732 6.67294 2.23671 6.61218 2.28358 6.61177L2.6455 6.60896L2.75999 6.25959C2.77469 6.21433 2.83762 6.21433 2.85244 6.25959Z" fill="#F5F5F5"/>
<path d="M2.85244 8.08718L2.96693 8.43656L3.32885 8.43936C3.37572 8.43978 3.39512 8.50059 3.35744 8.52891L3.0663 8.74772L3.17552 9.09883C3.1897 9.14426 3.13878 9.18194 3.10064 9.15415L2.80622 8.93999L2.5118 9.15415C2.47365 9.18188 2.42285 9.14426 2.43692 9.09883L2.54613 8.74772L2.25499 8.52891C2.21732 8.50053 2.23671 8.43978 2.28358 8.43936L2.6455 8.43656L2.75999 8.08718C2.77469 8.04199 2.83762 8.04199 2.85244 8.08718Z" fill="#F5F5F5"/>
<path d="M4.2421 1.70807L4.35658 2.05745L4.7185 2.06025C4.76538 2.06067 4.78477 2.12148 4.7471 2.1498L4.45596 2.36861L4.56517 2.71972C4.57935 2.76515 4.52843 2.80283 4.49029 2.77504L4.19587 2.56089L3.90145 2.77504C3.8633 2.80277 3.8125 2.76515 3.82657 2.71972L3.93578 2.36861L3.64464 2.1498C3.60697 2.12142 3.62636 2.06067 3.67323 2.06025L4.03515 2.05745L4.14964 1.70807C4.1644 1.66282 4.22727 1.66282 4.2421 1.70807Z" fill="#F5F5F5"/>
<path d="M4.2421 3.53566L4.35658 3.88504L4.7185 3.88784C4.76538 3.88826 4.78477 3.94908 4.7471 3.9774L4.45596 4.1962L4.56517 4.54731C4.57935 4.59274 4.52843 4.63042 4.49029 4.60264L4.19587 4.38848L3.90145 4.60264C3.8633 4.63036 3.8125 4.59274 3.82657 4.54731L3.93578 4.1962L3.64464 3.9774C3.60697 3.94902 3.62636 3.88826 3.67323 3.88784L4.03515 3.88504L4.14964 3.53566C4.1644 3.49047 4.22727 3.49047 4.2421 3.53566Z" fill="#F5F5F5"/>
<path d="M4.2421 5.36318L4.35658 5.71256L4.7185 5.71536C4.76538 5.71578 4.78477 5.7766 4.7471 5.80492L4.45596 6.02373L4.56517 6.37484C4.57935 6.42027 4.52843 6.45795 4.49029 6.43017L4.19587 6.216L3.90145 6.43017C3.8633 6.45789 3.8125 6.42027 3.82657 6.37484L3.93578 6.02373L3.64464 5.80492C3.60697 5.77654 3.62636 5.71578 3.67323 5.71536L4.03515 5.71256L4.14964 5.36318C4.1644 5.31799 4.22727 5.31799 4.2421 5.36318Z" fill="#F5F5F5"/>
<path d="M4.2421 7.1911L4.35658 7.54048L4.7185 7.54329C4.76538 7.5437 4.78477 7.60452 4.7471 7.63284L4.45596 7.85164L4.56517 8.20275C4.57935 8.24818 4.52843 8.28586 4.49029 8.25808L4.19587 8.04392L3.90145 8.25808C3.8633 8.2858 3.8125 8.24818 3.82657 8.20275L3.93578 7.85164L3.64464 7.63284C3.60697 7.60446 3.62636 7.5437 3.67323 7.54329L4.03515 7.54048L4.14964 7.1911C4.1644 7.14585 4.22727 7.14585 4.2421 7.1911Z" fill="#F5F5F5"/>
<path d="M4.2421 9.01854L4.35658 9.36792L4.7185 9.37072C4.76538 9.37114 4.78477 9.43195 4.7471 9.46027L4.45596 9.67908L4.56517 10.0302C4.57935 10.0756 4.52843 10.1133 4.49029 10.0855L4.19587 9.87136L3.90145 10.0855C3.8633 10.1132 3.8125 10.0756 3.82657 10.0302L3.93578 9.67908L3.64464 9.46027C3.60697 9.4319 3.62636 9.37114 3.67323 9.37072L4.03515 9.36792L4.14964 9.01854C4.1644 8.97323 4.22727 8.97323 4.2421 9.01854Z" fill="#F5F5F5"/>
<path d="M5.63955 2.60415L5.75404 2.95352L6.11596 2.95633C6.16283 2.95674 6.18223 3.01756 6.14455 3.04588L5.85341 3.26469L5.96263 3.61579C5.97681 3.66122 5.92589 3.6989 5.88775 3.67112L5.59333 3.45696L5.29891 3.67112C5.26076 3.69884 5.20996 3.66122 5.22403 3.61579L5.33324 3.26469L5.0421 3.04588C5.00443 3.0175 5.02382 2.95674 5.07069 2.95633L5.43261 2.95352L5.5471 2.60415C5.5618 2.55895 5.62473 2.55895 5.63955 2.60415Z" fill="#F5F5F5"/>
<path d="M5.63955 4.43183L5.75404 4.7812L6.11596 4.784C6.16283 4.78442 6.18223 4.84523 6.14455 4.87355L5.85341 5.09236L5.96263 5.44347C5.97681 5.4889 5.92589 5.52658 5.88775 5.49879L5.59333 5.28464L5.29891 5.49879C5.26076 5.52652 5.20996 5.48896 5.22403 5.44347L5.33324 5.09236L5.0421 4.87355C5.00443 4.84518 5.02382 4.78442 5.07069 4.784L5.43261 4.7812L5.5471 4.43183C5.5618 4.38658 5.62473 4.38658 5.63955 4.43183Z" fill="#F5F5F5"/>
<path d="M5.63955 6.25959L5.75404 6.60896L6.11596 6.61177C6.16283 6.61218 6.18223 6.673 6.14455 6.70132L5.85341 6.92013L5.96263 7.27123C5.97681 7.31666 5.92589 7.35434 5.88775 7.32656L5.59333 7.1124L5.29891 7.32656C5.26076 7.35429 5.20996 7.31666 5.22403 7.27123L5.33324 6.92013L5.0421 6.70132C5.00443 6.67294 5.02382 6.61218 5.07069 6.61177L5.43261 6.60896L5.5471 6.25959C5.5618 6.21433 5.62473 6.21433 5.63955 6.25959Z" fill="#F5F5F5"/>
<path d="M5.63955 8.08718L5.75404 8.43656L6.11596 8.43936C6.16283 8.43978 6.18223 8.50059 6.14455 8.52891L5.85341 8.74772L5.96263 9.09883C5.97681 9.14426 5.92589 9.18194 5.88775 9.15415L5.59333 8.93999L5.29891 9.15415C5.26076 9.18188 5.20996 9.14426 5.22403 9.09883L5.33324 8.74772L5.0421 8.52891C5.00443 8.50053 5.02382 8.43978 5.07069 8.43936L5.43261 8.43656L5.5471 8.08718C5.5618 8.04199 5.62473 8.04199 5.63955 8.08718Z" fill="#F5F5F5"/>
<path d="M7.03292 1.70807L7.14741 2.05745L7.50933 2.06025C7.5562 2.06067 7.5756 2.12148 7.53792 2.1498L7.24678 2.36861L7.356 2.71972C7.37018 2.76515 7.31926 2.80283 7.28112 2.77504L6.98664 2.56089L6.69222 2.77504C6.65407 2.80277 6.60328 2.76515 6.61734 2.71972L6.72655 2.36861L6.43541 2.1498C6.39774 2.12142 6.41713 2.06067 6.464 2.06025L6.82592 2.05745L6.94041 1.70807C6.95523 1.66282 7.0181 1.66282 7.03292 1.70807Z" fill="#F5F5F5"/>
<path d="M7.03292 3.53566L7.14741 3.88504L7.50933 3.88784C7.5562 3.88826 7.5756 3.94908 7.53792 3.9774L7.24678 4.1962L7.356 4.54731C7.37018 4.59274 7.31926 4.63042 7.28112 4.60264L6.98664 4.38848L6.69222 4.60264C6.65407 4.63036 6.60328 4.59274 6.61734 4.54731L6.72655 4.1962L6.43541 3.9774C6.39774 3.94902 6.41713 3.88826 6.464 3.88784L6.82592 3.88504L6.94041 3.53566C6.95523 3.49047 7.0181 3.49047 7.03292 3.53566Z" fill="#F5F5F5"/>
<path d="M7.03292 5.36318L7.14741 5.71256L7.50933 5.71536C7.5562 5.71578 7.5756 5.7766 7.53792 5.80492L7.24678 6.02373L7.356 6.37484C7.37018 6.42027 7.31926 6.45795 7.28112 6.43017L6.98664 6.216L6.69222 6.43017C6.65407 6.45789 6.60328 6.42027 6.61734 6.37484L6.72655 6.02373L6.43541 5.80492C6.39774 5.77654 6.41713 5.71578 6.464 5.71536L6.82592 5.71256L6.94041 5.36318C6.95523 5.31799 7.0181 5.31799 7.03292 5.36318Z" fill="#F5F5F5"/>
<path d="M7.03292 7.1911L7.14741 7.54048L7.50933 7.54329C7.5562 7.5437 7.5756 7.60452 7.53792 7.63284L7.24678 7.85164L7.356 8.20275C7.37018 8.24818 7.31926 8.28586 7.28112 8.25808L6.98664 8.04392L6.69222 8.25808C6.65407 8.2858 6.60328 8.24818 6.61734 8.20275L6.72655 7.85164L6.43541 7.63284C6.39774 7.60446 6.41713 7.5437 6.464 7.54329L6.82592 7.54048L6.94041 7.1911C6.95523 7.14585 7.0181 7.14585 7.03292 7.1911Z" fill="#F5F5F5"/>
<path d="M7.03292 9.01854L7.14741 9.36792L7.50933 9.37072C7.5562 9.37114 7.5756 9.43195 7.53792 9.46027L7.24678 9.67908L7.356 10.0302C7.37018 10.0756 7.31926 10.1133 7.28112 10.0855L6.98664 9.87136L6.69222 10.0855C6.65407 10.1132 6.60328 10.0756 6.61734 10.0302L6.72655 9.67908L6.43541 9.46027C6.39774 9.4319 6.41713 9.37114 6.464 9.37072L6.82592 9.36792L6.94041 9.01854C6.95523 8.97323 7.0181 8.97323 7.03292 9.01854Z" fill="#F5F5F5"/>
<path d="M8.42642 2.60415L8.54091 2.95352L8.90283 2.95633C8.9497 2.95674 8.9691 3.01756 8.93142 3.04588L8.64028 3.26469L8.7495 3.61579C8.76368 3.66122 8.71276 3.6989 8.67462 3.67112L8.38019 3.45696L8.08577 3.67112C8.04763 3.69884 7.99683 3.66122 8.01089 3.61579L8.12011 3.26469L7.82897 3.04588C7.79129 3.0175 7.81069 2.95674 7.85756 2.95633L8.21948 2.95352L8.33397 2.60415C8.34879 2.55895 8.4116 2.55895 8.42642 2.60415Z" fill="#F5F5F5"/>
<path d="M8.42642 4.43183L8.54091 4.7812L8.90283 4.784C8.9497 4.78442 8.9691 4.84523 8.93142 4.87355L8.64028 5.09236L8.7495 5.44347C8.76368 5.4889 8.71276 5.52658 8.67462 5.49879L8.38019 5.28464L8.08577 5.49879C8.04763 5.52652 7.99683 5.48896 8.01089 5.44347L8.12011 5.09236L7.82897 4.87355C7.79129 4.84518 7.81069 4.78442 7.85756 4.784L8.21948 4.7812L8.33397 4.43183C8.34879 4.38658 8.4116 4.38658 8.42642 4.43183Z" fill="#F5F5F5"/>
<path d="M8.42642 6.25959L8.54091 6.60896L8.90283 6.61177C8.9497 6.61218 8.9691 6.673 8.93142 6.70132L8.64028 6.92013L8.7495 7.27123C8.76368 7.31666 8.71276 7.35434 8.67462 7.32656L8.38019 7.1124L8.08577 7.32656C8.04763 7.35429 7.99683 7.31666 8.01089 7.27123L8.12011 6.92013L7.82897 6.70132C7.79129 6.67294 7.81069 6.61218 7.85756 6.61177L8.21948 6.60896L8.33397 6.25959C8.34879 6.21433 8.4116 6.21433 8.42642 6.25959Z" fill="#F5F5F5"/>
<path d="M8.42642 8.08718L8.54091 8.43656L8.90283 8.43936C8.9497 8.43978 8.9691 8.50059 8.93142 8.52891L8.64028 8.74772L8.7495 9.09883C8.76368 9.14426 8.71276 9.18194 8.67462 9.15415L8.38019 8.93999L8.08577 9.15415C8.04763 9.18188 7.99683 9.14426 8.01089 9.09883L8.12011 8.74772L7.82897 8.52891C7.79129 8.50053 7.81069 8.43978 7.85756 8.43936L8.21948 8.43656L8.33397 8.08718C8.34879 8.04199 8.4116 8.04199 8.42642 8.08718Z" fill="#F5F5F5"/>
<path d="M9.81998 1.70807L9.93447 2.05745L10.2964 2.06025C10.3433 2.06067 10.3627 2.12148 10.325 2.1498L10.0338 2.36861L10.1431 2.71972C10.1572 2.76515 10.1063 2.80283 10.0682 2.77504L9.77375 2.56089L9.47933 2.77504C9.44118 2.80277 9.39038 2.76515 9.40445 2.71972L9.51366 2.36861L9.22252 2.1498C9.18485 2.12142 9.20424 2.06067 9.25111 2.06025L9.61303 2.05745L9.72752 1.70807C9.74223 1.66282 9.80515 1.66282 9.81998 1.70807Z" fill="#F5F5F5"/>
<path d="M9.81998 3.53566L9.93447 3.88504L10.2964 3.88784C10.3433 3.88826 10.3627 3.94908 10.325 3.9774L10.0338 4.1962L10.1431 4.54731C10.1572 4.59274 10.1063 4.63042 10.0682 4.60264L9.77375 4.38848L9.47933 4.60264C9.44118 4.63036 9.39038 4.59274 9.40445 4.54731L9.51366 4.1962L9.22252 3.9774C9.18485 3.94902 9.20424 3.88826 9.25111 3.88784L9.61303 3.88504L9.72752 3.53566C9.74223 3.49047 9.80515 3.49047 9.81998 3.53566Z" fill="#F5F5F5"/>
<path d="M9.81998 5.36318L9.93447 5.71256L10.2964 5.71536C10.3433 5.71578 10.3627 5.7766 10.325 5.80492L10.0338 6.02373L10.1431 6.37484C10.1572 6.42027 10.1063 6.45795 10.0682 6.43017L9.77375 6.216L9.47933 6.43017C9.44118 6.45789 9.39038 6.42027 9.40445 6.37484L9.51366 6.02373L9.22252 5.80492C9.18485 5.77654 9.20424 5.71578 9.25111 5.71536L9.61303 5.71256L9.72752 5.36318C9.74223 5.31799 9.80515 5.31799 9.81998 5.36318Z" fill="#F5F5F5"/>
<path d="M9.81998 7.1911L9.93447 7.54048L10.2964 7.54329C10.3433 7.5437 10.3627 7.60452 10.325 7.63284L10.0338 7.85164L10.1431 8.20275C10.1572 8.24818 10.1063 8.28586 10.0682 8.25808L9.77375 8.04392L9.47933 8.25808C9.44118 8.2858 9.39038 8.24818 9.40445 8.20275L9.51366 7.85164L9.22252 7.63284C9.18485 7.60446 9.20424 7.5437 9.25111 7.54329L9.61303 7.54048L9.72752 7.1911C9.74223 7.14585 9.80515 7.14585 9.81998 7.1911Z" fill="#F5F5F5"/>
<path d="M9.81998 9.01854L9.93447 9.36792L10.2964 9.37072C10.3433 9.37114 10.3627 9.43195 10.325 9.46027L10.0338 9.67908L10.1431 10.0302C10.1572 10.0756 10.1063 10.1133 10.0682 10.0855L9.77375 9.87136L9.47933 10.0855C9.44118 10.1132 9.39038 10.0756 9.40445 10.0302L9.51366 9.67908L9.22252 9.46027C9.18485 9.4319 9.20424 9.37114 9.25111 9.37072L9.61303 9.36792L9.72752 9.01854C9.74223 8.97323 9.80515 8.97323 9.81998 9.01854Z" fill="#F5F5F5"/>
<path d="M11.2133 2.60415L11.3278 2.95352L11.6897 2.95633C11.7366 2.95674 11.756 3.01756 11.7183 3.04588L11.4271 3.26469L11.5364 3.61579C11.5505 3.66122 11.4996 3.6989 11.4615 3.67112L11.1671 3.45696L10.8726 3.67112C10.8345 3.69884 10.7837 3.66122 10.7978 3.61579L10.907 3.26469L10.6158 3.04588C10.5782 3.0175 10.5975 2.95674 10.6444 2.95633L11.0063 2.95352L11.1208 2.60415C11.1356 2.55895 11.1985 2.55895 11.2133 2.60415Z" fill="#F5F5F5"/>
<path d="M11.2133 4.43183L11.3278 4.7812L11.6897 4.784C11.7366 4.78442 11.756 4.84523 11.7183 4.87355L11.4271 5.09236L11.5364 5.44347C11.5505 5.4889 11.4996 5.52658 11.4615 5.49879L11.1671 5.28464L10.8726 5.49879C10.8345 5.52652 10.7837 5.48896 10.7978 5.44347L10.907 5.09236L10.6158 4.87355C10.5782 4.84518 10.5975 4.78442 10.6444 4.784L11.0063 4.7812L11.1208 4.43183C11.1356 4.38658 11.1985 4.38658 11.2133 4.43183Z" fill="#F5F5F5"/>
<path d="M11.2133 6.25959L11.3278 6.60896L11.6897 6.61177C11.7366 6.61218 11.756 6.673 11.7183 6.70132L11.4271 6.92013L11.5364 7.27123C11.5505 7.31666 11.4996 7.35434 11.4615 7.32656L11.1671 7.1124L10.8726 7.32656C10.8345 7.35429 10.7837 7.31666 10.7978 7.27123L10.907 6.92013L10.6158 6.70132C10.5782 6.67294 10.5975 6.61218 10.6444 6.61177L11.0063 6.60896L11.1208 6.25959C11.1356 6.21433 11.1985 6.21433 11.2133 6.25959Z" fill="#F5F5F5"/>
<path d="M11.2133 8.08718L11.3278 8.43656L11.6897 8.43936C11.7366 8.43978 11.756 8.50059 11.7183 8.52891L11.4271 8.74772L11.5364 9.09883C11.5505 9.14426 11.4996 9.18194 11.4615 9.15415L11.1671 8.93999L10.8726 9.15415C10.8345 9.18188 10.7837 9.14426 10.7978 9.09883L10.907 8.74772L10.6158 8.52891C10.5782 8.50053 10.5975 8.43978 10.6444 8.43936L11.0063 8.43656L11.1208 8.08718C11.1356 8.04199 11.1985 8.04199 11.2133 8.08718Z" fill="#F5F5F5"/>
<path d="M12.6068 1.70807L12.7213 2.05745L13.0832 2.06025C13.1301 2.06067 13.1495 2.12148 13.1118 2.1498L12.8207 2.36861L12.9299 2.71972C12.9441 2.76515 12.8932 2.80283 12.855 2.77504L12.5606 2.56089L12.2662 2.77504C12.228 2.80277 12.1772 2.76515 12.1913 2.71972L12.3005 2.36861L12.0094 2.1498C11.9717 2.12142 11.9911 2.06067 12.038 2.06025L12.3999 2.05745L12.5144 1.70807C12.5291 1.66282 12.592 1.66282 12.6068 1.70807Z" fill="#F5F5F5"/>
<path d="M12.6068 3.53566L12.7213 3.88504L13.0832 3.88784C13.1301 3.88826 13.1495 3.94908 13.1118 3.9774L12.8207 4.1962L12.9299 4.54731C12.9441 4.59274 12.8932 4.63042 12.855 4.60264L12.5606 4.38848L12.2662 4.60264C12.228 4.63036 12.1772 4.59274 12.1913 4.54731L12.3005 4.1962L12.0094 3.9774C11.9717 3.94902 11.9911 3.88826 12.038 3.88784L12.3999 3.88504L12.5144 3.53566C12.5291 3.49047 12.592 3.49047 12.6068 3.53566Z" fill="#F5F5F5"/>
<path d="M12.6068 5.36318L12.7213 5.71256L13.0832 5.71536C13.1301 5.71578 13.1495 5.7766 13.1118 5.80492L12.8207 6.02373L12.9299 6.37484C12.9441 6.42027 12.8932 6.45795 12.855 6.43017L12.5606 6.216L12.2662 6.43017C12.228 6.45789 12.1772 6.42027 12.1913 6.37484L12.3005 6.02373L12.0094 5.80492C11.9717 5.77654 11.9911 5.71578 12.038 5.71536L12.3999 5.71256L12.5144 5.36318C12.5291 5.31799 12.592 5.31799 12.6068 5.36318Z" fill="#F5F5F5"/>
<path d="M12.6068 7.1911L12.7213 7.54048L13.0832 7.54329C13.1301 7.5437 13.1495 7.60452 13.1118 7.63284L12.8207 7.85164L12.9299 8.20275C12.9441 8.24818 12.8932 8.28586 12.855 8.25808L12.5606 8.04392L12.2662 8.25808C12.228 8.2858 12.1772 8.24818 12.1913 8.20275L12.3005 7.85164L12.0094 7.63284C11.9717 7.60446 11.9911 7.5437 12.038 7.54329L12.3999 7.54048L12.5144 7.1911C12.5291 7.14585 12.592 7.14585 12.6068 7.1911Z" fill="#F5F5F5"/>
<path d="M12.6068 9.01854L12.7213 9.36792L13.0832 9.37072C13.1301 9.37114 13.1495 9.43195 13.1118 9.46027L12.8207 9.67908L12.9299 10.0302C12.9441 10.0756 12.8932 10.1133 12.855 10.0855L12.5606 9.87136L12.2662 10.0855C12.228 10.1132 12.1772 10.0756 12.1913 10.0302L12.3005 9.67908L12.0094 9.46027C11.9717 9.4319 11.9911 9.37114 12.038 9.37072L12.3999 9.36792L12.5144 9.01854C12.5291 8.97323 12.592 8.97323 12.6068 9.01854Z" fill="#F5F5F5"/>
</svg>
