<svg width="15" height="14" viewBox="0 0 15 14" fill="none" xmlns="http://www.w3.org/2000/svg">
<g clip-path="url(#clip0_826_1311)">
<path d="M1.08325 12.25H3.41659V5.25H1.08325V12.25ZM13.9166 5.83333C13.9166 5.18875 13.3945 4.66666 12.7499 4.66666H9.06617L9.62325 2.00083C9.63492 1.94249 9.64367 1.88125 9.64367 1.81708C9.64367 1.57499 9.5445 1.35625 9.387 1.19875L8.76575 0.583328L4.9245 4.42458C4.7145 4.6375 4.58325 4.92916 4.58325 5.25V11.0833C4.58325 11.7279 5.10534 12.25 5.74992 12.25H10.9999C11.4841 12.25 11.8983 11.9554 12.0733 11.5383L13.832 7.42583C13.8845 7.29166 13.9166 7.14875 13.9166 7V5.88291L13.9108 5.87708L13.9166 5.83333Z" fill="#CDDAF2"/>
</g>
<defs>
<clipPath id="clip0_826_1311">
<rect width="14" height="14" fill="white" transform="translate(0.5)"/>
</clipPath>
</defs>
</svg>
