<svg width="16" height="16" viewBox="0 0 16 16" fill="none" xmlns="http://www.w3.org/2000/svg">
<path fill-rule="evenodd" clip-rule="evenodd" d="M8 0C3.58172 0 0 3.58172 0 8C0 12.4183 3.58172 16 8 16C12.4183 16 16 12.4183 16 8C16 3.58172 12.4183 0 8 0ZM6.24109 3.75909C6.6962 3.73838 6.84163 3.73331 8.0004 3.73331H7.99906C9.15819 3.73331 9.30308 3.73838 9.75819 3.75909C10.2124 3.77989 10.5226 3.8518 10.7946 3.95731C11.0755 4.06621 11.3129 4.21198 11.5502 4.44932C11.7875 4.68648 11.9333 4.92453 12.0427 5.20515C12.1475 5.47644 12.2196 5.78649 12.2409 6.24072C12.2613 6.69583 12.2667 6.84126 12.2667 8.00002C12.2667 9.15879 12.2613 9.30386 12.2409 9.75898C12.2196 10.213 12.1475 10.5232 12.0427 10.7945C11.9333 11.0751 11.7875 11.3131 11.5502 11.5503C11.3131 11.7876 11.0754 11.9338 10.7949 12.0427C10.5234 12.1482 10.213 12.2202 9.75881 12.241C9.3037 12.2617 9.15872 12.2667 7.99986 12.2667C6.84118 12.2667 6.69585 12.2617 6.24073 12.241C5.78659 12.2202 5.47646 12.1482 5.20499 12.0427C4.92454 11.9338 4.68649 11.7876 4.44943 11.5503C4.21218 11.3131 4.0664 11.0751 3.95733 10.7945C3.85191 10.5232 3.78 10.2131 3.75911 9.75889C3.73848 9.30377 3.73333 9.15879 3.73333 8.00002C3.73333 6.84126 3.73866 6.69574 3.75902 6.24063C3.77946 5.78658 3.85146 5.47644 3.95724 5.20506C4.06658 4.92453 4.21236 4.68648 4.44969 4.44932C4.68685 4.21207 4.9249 4.06629 5.20552 3.95731C5.47681 3.8518 5.78686 3.77989 6.24109 3.75909Z" fill="white" fill-opacity="0.5"/>
</svg>
