<svg width="13" height="13" viewBox="0 0 13 13" fill="none" xmlns="http://www.w3.org/2000/svg">
<path d="M0.0830078 12.25H2.41634V5.25H0.0830078V12.25ZM12.9163 5.83333C12.9163 5.18875 12.3943 4.66666 11.7497 4.66666H8.06592L8.62301 2.00083C8.63467 1.94249 8.64342 1.88125 8.64342 1.81708C8.64342 1.57499 8.54426 1.35625 8.38676 1.19875L7.76551 0.583328L3.92426 4.42458C3.71426 4.6375 3.58301 4.92916 3.58301 5.25V11.0833C3.58301 11.7279 4.10509 12.25 4.74967 12.25H9.99967C10.4838 12.25 10.898 11.9554 11.073 11.5383L12.8318 7.42583C12.8843 7.29166 12.9163 7.14875 12.9163 7V5.88291L12.9105 5.87708L12.9163 5.83333Z" fill="#CDDAF2"/>
</svg>
