<svg width="20" height="20" viewBox="0 0 20 20" fill="none" xmlns="http://www.w3.org/2000/svg">
<g opacity="0.3">
<path d="M4.41683 11.9167L9.41683 6.91671C9.5835 6.75004 9.75016 6.66671 10.0002 6.66671C10.2502 6.66671 10.4168 6.75004 10.5835 6.91671L15.5835 11.9167C15.9168 12.25 15.9168 12.75 15.5835 13.0834C15.2502 13.4167 14.7502 13.4167 14.4168 13.0834L10.0002 8.66671L5.5835 13.0834C5.25016 13.4167 4.75016 13.4167 4.41683 13.0834C4.0835 12.75 4.0835 12.25 4.41683 11.9167Z" fill="#272557"/>
<mask id="mask0_26_9618" style="mask-type:luminance" maskUnits="userSpaceOnUse" x="4" y="6" width="12" height="8">
<path d="M4.41683 11.9167L9.41683 6.91671C9.5835 6.75004 9.75016 6.66671 10.0002 6.66671C10.2502 6.66671 10.4168 6.75004 10.5835 6.91671L15.5835 11.9167C15.9168 12.25 15.9168 12.75 15.5835 13.0834C15.2502 13.4167 14.7502 13.4167 14.4168 13.0834L10.0002 8.66671L5.5835 13.0834C5.25016 13.4167 4.75016 13.4167 4.41683 13.0834C4.0835 12.75 4.0835 12.25 4.41683 11.9167Z" fill="white"/>
</mask>
<g mask="url(#mask0_26_9618)">
</g>
</g>
</svg>
