<svg width="22" height="22" viewBox="0 0 22 22" fill="none" xmlns="http://www.w3.org/2000/svg">
<g opacity="0.3">
<path fill-rule="evenodd" clip-rule="evenodd" d="M11 13.5C12.3807 13.5 13.5 12.3807 13.5 11C13.5 9.61929 12.3807 8.5 11 8.5C9.61929 8.5 8.5 9.61929 8.5 11C8.5 12.3807 9.61929 13.5 11 13.5Z" stroke="#272557" stroke-width="1.8" stroke-linecap="round" stroke-linejoin="round"/>
<path fill-rule="evenodd" clip-rule="evenodd" d="M17.1666 13.5C16.9396 14.0143 17.0485 14.6149 17.4416 15.0167L17.4916 15.0667C17.8045 15.3793 17.9804 15.8035 17.9804 16.2459C17.9804 16.6882 17.8045 17.1124 17.4916 17.425C17.179 17.738 16.7548 17.9139 16.3124 17.9139C15.8701 17.9139 15.4459 17.738 15.1333 17.425L15.0833 17.375C14.6814 16.982 14.0808 16.8731 13.5666 17.1C13.0629 17.3159 12.7354 17.8103 12.7333 18.3584V18.5C12.7333 19.4205 11.9871 20.1667 11.0666 20.1667C10.1461 20.1667 9.39992 19.4205 9.39992 18.5V18.425C9.38672 17.8606 9.02981 17.3616 8.49992 17.1667C7.98568 16.9398 7.38507 17.0487 6.98325 17.4417L6.93325 17.4917C6.62064 17.8047 6.19643 17.9805 5.75408 17.9805C5.31174 17.9805 4.88753 17.8047 4.57492 17.4917C4.26196 17.1791 4.08611 16.7549 4.08611 16.3125C4.08611 15.8702 4.26196 15.446 4.57492 15.1334L4.62492 15.0834C5.01797 14.6816 5.12687 14.0809 4.89992 13.5667C4.68403 13.063 4.18962 12.7356 3.64159 12.7334H3.49992C2.57944 12.7334 1.83325 11.9872 1.83325 11.0667C1.83325 10.1462 2.57944 9.40004 3.49992 9.40004H3.57492C4.13936 9.38684 4.63836 9.02993 4.83325 8.50004C5.06021 7.9858 4.95131 7.3852 4.55825 6.98337L4.50825 6.93337C4.19529 6.62076 4.01944 6.19656 4.01944 5.75421C4.01944 5.31186 4.19529 4.88765 4.50825 4.57504C4.82087 4.26208 5.24507 4.08623 5.68742 4.08623C6.12977 4.08623 6.55397 4.26208 6.86658 4.57504L6.91658 4.62504C7.31841 5.0181 7.91901 5.127 8.43325 4.90004H8.49992C9.00364 4.68415 9.33107 4.18974 9.33325 3.64171V3.50004C9.33325 2.57957 10.0794 1.83337 10.9999 1.83337C11.9204 1.83337 12.6666 2.57957 12.6666 3.50004V3.57504C12.6688 4.12308 12.9962 4.61748 13.4999 4.83337C14.0142 5.06033 14.6148 4.95143 15.0166 4.55837L15.0666 4.50837C15.3792 4.19541 15.8034 4.01956 16.2458 4.01956C16.6881 4.01956 17.1123 4.19541 17.4249 4.50837C17.7379 4.82099 17.9137 5.24519 17.9137 5.68754C17.9137 6.12989 17.7379 6.55409 17.4249 6.86671L17.3749 6.91671C16.9819 7.31853 16.873 7.91913 17.0999 8.43337V8.50004C17.3158 9.00377 17.8102 9.33119 18.3583 9.33337H18.4999C19.4204 9.33337 20.1666 10.0796 20.1666 11C20.1666 11.9205 19.4204 12.6667 18.4999 12.6667H18.4249C17.8769 12.6689 17.3825 12.9963 17.1666 13.5Z" stroke="#272557" stroke-width="1.8" stroke-linecap="round" stroke-linejoin="round"/>
</g>
</svg>
