<svg width="20" height="18" viewBox="0 0 20 18" fill="none" xmlns="http://www.w3.org/2000/svg">
<path fill-rule="evenodd" clip-rule="evenodd" d="M3.33333 0.666626C3.79357 0.666626 4.16667 1.03972 4.16667 1.49996V7.33329C4.16667 7.79353 3.79357 8.16663 3.33333 8.16663C2.8731 8.16663 2.5 7.79353 2.5 7.33329V1.49996C2.5 1.03972 2.8731 0.666626 3.33333 0.666626ZM2.5 11.5V16.5C2.5 16.9602 2.8731 17.3333 3.33333 17.3333C3.79357 17.3333 4.16667 16.9602 4.16667 16.5V11.5H5.83333C6.29357 11.5 6.66667 11.1269 6.66667 10.6666C6.66667 10.2064 6.29357 9.83329 5.83333 9.83329H3.33333H0.833333C0.373096 9.83329 0 10.2064 0 10.6666C0 11.1269 0.373096 11.5 0.833333 11.5H2.5ZM10.8333 8.99996C10.8333 8.53972 10.4602 8.16663 10 8.16663C9.53976 8.16663 9.16667 8.53972 9.16667 8.99996V16.5C9.16667 16.9602 9.53976 17.3333 10 17.3333C10.4602 17.3333 10.8333 16.9602 10.8333 16.5V8.99996ZM10 0.666626C10.4602 0.666626 10.8333 1.03972 10.8333 1.49996V4.83329H12.5C12.9602 4.83329 13.3333 5.20639 13.3333 5.66663C13.3333 6.12686 12.9602 6.49996 12.5 6.49996H7.5C7.03976 6.49996 6.66667 6.12686 6.66667 5.66663C6.66667 5.20639 7.03976 4.83329 7.5 4.83329H9.16667V1.49996C9.16667 1.03972 9.53976 0.666626 10 0.666626ZM16.6667 11.5H19.1667C19.6269 11.5 20 11.8731 20 12.3333C20 12.7935 19.6269 13.1666 19.1667 13.1666H17.5V16.5C17.5 16.9602 17.1269 17.3333 16.6667 17.3333C16.2064 17.3333 15.8333 16.9602 15.8333 16.5V13.1666H14.1667C13.7064 13.1666 13.3333 12.7935 13.3333 12.3333C13.3333 11.8731 13.7064 11.5 14.1667 11.5H16.6667ZM16.6667 0.666626C17.1269 0.666626 17.5 1.03972 17.5 1.49996V8.99996C17.5 9.4602 17.1269 9.83329 16.6667 9.83329C16.2064 9.83329 15.8333 9.4602 15.8333 8.99996V1.49996C15.8333 1.03972 16.2064 0.666626 16.6667 0.666626Z" fill="#1565C0"/>
</svg>
