<svg width="20" height="20" viewBox="0 0 20 20" fill="none" xmlns="http://www.w3.org/2000/svg">
<g opacity="0.3">
<path fill-rule="evenodd" clip-rule="evenodd" d="M15.8333 9.99996C15.8333 9.49996 16.1666 9.16663 16.6666 9.16663C17.1666 9.16663 17.4999 9.49996 17.4999 9.99996V15.8333C17.4999 17.25 16.4166 18.3333 14.9999 18.3333H3.33325C1.91659 18.3333 0.833252 17.25 0.833252 15.8333V4.16663C0.833252 2.74996 1.91659 1.66663 3.33325 1.66663H12.4999C12.9999 1.66663 13.3333 1.99996 13.3333 2.49996C13.3333 2.99996 12.9999 3.33329 12.4999 3.33329H3.33325C2.83325 3.33329 2.49992 3.66663 2.49992 4.16663V15.8333C2.49992 16.3333 2.83325 16.6666 3.33325 16.6666H14.9999C15.4999 16.6666 15.8333 16.3333 15.8333 15.8333V9.99996ZM9.74992 12.25L18.9166 3.08329C19.2499 2.74996 19.2499 2.24996 18.9166 1.91663C18.5833 1.58329 18.0833 1.58329 17.7499 1.91663L9.16658 10.5L7.24992 8.58329C6.91658 8.24996 6.41658 8.24996 6.08325 8.58329C5.74992 8.91663 5.74992 9.41663 6.08325 9.74996L8.58325 12.25C8.74992 12.4166 8.91658 12.5 9.16658 12.5C9.41658 12.5 9.58325 12.4166 9.74992 12.25Z" fill="black"/>
<mask id="mask0_26_7764" style="mask-type:luminance" maskUnits="userSpaceOnUse" x="0" y="1" width="20" height="18">
<path fill-rule="evenodd" clip-rule="evenodd" d="M15.8333 9.99996C15.8333 9.49996 16.1666 9.16663 16.6666 9.16663C17.1666 9.16663 17.4999 9.49996 17.4999 9.99996V15.8333C17.4999 17.25 16.4166 18.3333 14.9999 18.3333H3.33325C1.91659 18.3333 0.833252 17.25 0.833252 15.8333V4.16663C0.833252 2.74996 1.91659 1.66663 3.33325 1.66663H12.4999C12.9999 1.66663 13.3333 1.99996 13.3333 2.49996C13.3333 2.99996 12.9999 3.33329 12.4999 3.33329H3.33325C2.83325 3.33329 2.49992 3.66663 2.49992 4.16663V15.8333C2.49992 16.3333 2.83325 16.6666 3.33325 16.6666H14.9999C15.4999 16.6666 15.8333 16.3333 15.8333 15.8333V9.99996ZM9.74992 12.25L18.9166 3.08329C19.2499 2.74996 19.2499 2.24996 18.9166 1.91663C18.5833 1.58329 18.0833 1.58329 17.7499 1.91663L9.16658 10.5L7.24992 8.58329C6.91658 8.24996 6.41658 8.24996 6.08325 8.58329C5.74992 8.91663 5.74992 9.41663 6.08325 9.74996L8.58325 12.25C8.74992 12.4166 8.91658 12.5 9.16658 12.5C9.41658 12.5 9.58325 12.4166 9.74992 12.25Z" fill="white"/>
</mask>
<g mask="url(#mask0_26_7764)">
<rect width="20" height="20" fill="#272557"/>
</g>
</g>
</svg>
