<svg width="20" height="14" viewBox="0 0 20 14" fill="none" xmlns="http://www.w3.org/2000/svg">
<path d="M15.834 3.66671L12.5006 7.00004H15.0006C15.0006 9.76254 12.7631 12 10.0007 12C9.15482 12 8.36315 11.7875 7.66315 11.4209L6.44648 12.6375C7.47982 13.2834 8.69232 13.6667 10.0007 13.6667C13.684 13.6667 16.6673 10.6834 16.6673 7.00004H19.1673L15.834 3.66671ZM5.00065 7.00004C5.00065 4.23754 7.23815 2.00004 10.0007 2.00004C10.8465 2.00004 11.6382 2.21254 12.3382 2.57921L13.5548 1.36254C12.5215 0.716707 11.309 0.333374 10.0007 0.333374C6.31732 0.333374 3.33398 3.31671 3.33398 7.00004H0.833984L4.16732 10.3334L7.50065 7.00004H5.00065Z" fill="#E0E0E0"/>
</svg>
