<svg width="16" height="17" viewBox="0 0 16 17" fill="none" xmlns="http://www.w3.org/2000/svg">
<path d="M7.9371 10.25C8.40123 10.25 8.84635 10.0656 9.17454 9.73746C9.50273 9.40927 9.6871 8.96415 9.6871 8.50002C9.6871 8.44877 9.68476 8.39799 9.68038 8.34783L7.78491 10.2433C7.83507 10.2477 7.8857 10.25 7.9371 10.25ZM13.7296 3.0869L13.0621 2.42002C13.0387 2.3966 13.0069 2.38344 12.9737 2.38344C12.9406 2.38344 12.9088 2.3966 12.8854 2.42002L11.1773 4.12861C10.235 3.64705 9.17575 3.40627 7.9996 3.40627C4.99648 3.40627 2.75585 4.97033 1.27773 8.09846C1.21831 8.22427 1.1875 8.36167 1.1875 8.5008C1.1875 8.63993 1.21831 8.77734 1.27773 8.90315C1.86835 10.1472 2.57955 11.1443 3.41132 11.8946L1.75835 13.5469C1.73493 13.5703 1.72177 13.6021 1.72177 13.6353C1.72177 13.6684 1.73493 13.7002 1.75835 13.7236L2.42538 14.3906C2.44882 14.4141 2.4806 14.4272 2.51374 14.4272C2.54688 14.4272 2.57866 14.4141 2.6021 14.3906L13.7296 3.26377C13.7412 3.25216 13.7504 3.23838 13.7567 3.2232C13.763 3.20803 13.7663 3.19176 13.7663 3.17533C13.7663 3.15891 13.763 3.14264 13.7567 3.12747C13.7504 3.11229 13.7412 3.0985 13.7296 3.0869ZM5.1871 8.50002C5.18706 8.02503 5.31005 7.55813 5.54408 7.14479C5.77812 6.73146 6.11523 6.3858 6.52256 6.14147C6.92989 5.89715 7.39357 5.76249 7.86841 5.75063C8.34325 5.73876 8.81307 5.85009 9.2321 6.07377L8.47241 6.83346C8.16604 6.73536 7.83856 6.72354 7.52591 6.79931C7.21327 6.87508 6.92753 7.0355 6.70006 7.26297C6.47258 7.49045 6.31216 7.77619 6.23639 8.08883C6.16062 8.40148 6.17244 8.72896 6.27054 9.03533L5.51085 9.79502C5.29766 9.39671 5.18644 8.9518 5.1871 8.50002Z" fill="#D2DDF1"/>
<path d="M14.722 8.09688C14.172 6.93854 13.5174 5.99401 12.7581 5.26328L10.5059 7.51563C10.6958 8.0119 10.7379 8.55253 10.6271 9.07221C10.5163 9.59188 10.2574 10.0684 9.88172 10.4441C9.506 10.8198 9.02953 11.0787 8.50986 11.1895C7.99018 11.3002 7.44955 11.2581 6.95328 11.0683L5.04297 12.9786C5.92922 13.3887 6.91495 13.5938 8.00016 13.5938C11.0033 13.5938 13.2439 12.0297 14.722 8.90157C14.7815 8.77576 14.8123 8.63836 14.8123 8.49922C14.8123 8.36009 14.7815 8.22268 14.722 8.09688Z" fill="#D2DDF1"/>
</svg>
