<svg width="16" height="16" viewBox="0 0 16 16" fill="none" xmlns="http://www.w3.org/2000/svg">
<g clip-path="url(#clip0_828_1742)">
<path d="M14.6439 1.67629C12.8903 -0.039527 10.0869 -0.0391538 8.33369 1.67713L0.980778 9.03008C-0.348776 10.391 -0.323367 12.572 1.03753 13.9016C2.37604 15.2093 4.51374 15.2093 5.85225 13.9016L12.5104 7.24337C13.376 6.3778 13.376 4.97439 12.5104 4.10881C11.6449 3.24324 10.2414 3.24324 9.37587 4.10881L3.00717 10.4775C2.78503 10.7075 2.79141 11.074 3.02141 11.2961C3.24579 11.5129 3.60148 11.5129 3.82586 11.2961L10.1945 4.92747C10.6169 4.52289 11.2872 4.53731 11.6917 4.95963C12.0841 5.3692 12.0841 6.01515 11.6917 6.42471L5.03359 13.0829C4.13413 13.9695 2.68614 13.9592 1.79947 13.0597C0.92175 12.1693 0.92175 10.7391 1.79947 9.84874L9.15238 2.49579C10.4621 1.18557 12.586 1.1852 13.8962 2.49491C15.2064 3.80462 15.2068 5.9285 13.8971 7.23872L6.54413 14.5917C6.30126 14.7997 6.27297 15.1652 6.48096 15.408C6.68895 15.6509 7.05445 15.6792 7.29731 15.4712C7.31997 15.4518 7.34107 15.4307 7.36048 15.408L14.7134 8.05507C16.4557 6.27443 16.4246 3.41853 14.6439 1.67629Z" fill="#272557"/>
</g>
<defs>
<clipPath id="clip0_828_1742">
<rect width="16" height="16" fill="white"/>
</clipPath>
</defs>
</svg>
